<?xml version="1.0" encoding="UTF-8"?>
<svg xmlns="http://www.w3.org/2000/svg" fill="currentColor" version="1.1" viewBox="0 0 47 47" stroke="none">
<path d="M1,1h1v1h-1zM2,1h1v1h-1zM3,1h1v1h-1zM4,1h1v1h-1zM5,1h1v1h-1zM6,1h1v1h-1zM7,1h1v1h-1zM12,1h1v1h-1zM13,1h1v1h-1zM15,1h1v1h-1zM16,1h1v1h-1zM18,1h1v1h-1zM24,1h1v1h-1zM25,1h1v1h-1zM29,1h1v1h-1zM30,1h1v1h-1zM31,1h1v1h-1zM32,1h1v1h-1zM33,1h1v1h-1zM37,1h1v1h-1zM39,1h1v1h-1zM40,1h1v1h-1zM41,1h1v1h-1zM42,1h1v1h-1zM43,1h1v1h-1zM44,1h1v1h-1zM45,1h1v1h-1zM1,2h1v1h-1zM7,2h1v1h-1zM10,2h1v1h-1zM12,2h1v1h-1zM16,2h1v1h-1zM18,2h1v1h-1zM19,2h1v1h-1zM20,2h1v1h-1zM21,2h1v1h-1zM22,2h1v1h-1zM23,2h1v1h-1zM25,2h1v1h-1zM30,2h1v1h-1zM31,2h1v1h-1zM32,2h1v1h-1zM34,2h1v1h-1zM36,2h1v1h-1zM39,2h1v1h-1zM45,2h1v1h-1zM1,3h1v1h-1zM3,3h1v1h-1zM4,3h1v1h-1zM5,3h1v1h-1zM7,3h1v1h-1zM9,3h1v1h-1zM14,3h1v1h-1zM16,3h1v1h-1zM18,3h1v1h-1zM19,3h1v1h-1zM20,3h1v1h-1zM30,3h1v1h-1zM31,3h1v1h-1zM32,3h1v1h-1zM36,3h1v1h-1zM39,3h1v1h-1zM41,3h1v1h-1zM42,3h1v1h-1zM43,3h1v1h-1zM45,3h1v1h-1zM1,4h1v1h-1zM3,4h1v1h-1zM4,4h1v1h-1zM5,4h1v1h-1zM7,4h1v1h-1zM9,4h1v1h-1zM11,4h1v1h-1zM12,4h1v1h-1zM14,4h1v1h-1zM18,4h1v1h-1zM19,4h1v1h-1zM21,4h1v1h-1zM24,4h1v1h-1zM25,4h1v1h-1zM27,4h1v1h-1zM29,4h1v1h-1zM30,4h1v1h-1zM32,4h1v1h-1zM33,4h1v1h-1zM36,4h1v1h-1zM37,4h1v1h-1zM39,4h1v1h-1zM41,4h1v1h-1zM42,4h1v1h-1zM43,4h1v1h-1zM45,4h1v1h-1zM1,5h1v1h-1zM3,5h1v1h-1zM4,5h1v1h-1zM5,5h1v1h-1zM7,5h1v1h-1zM9,5h1v1h-1zM11,5h1v1h-1zM12,5h1v1h-1zM13,5h1v1h-1zM14,5h1v1h-1zM16,5h1v1h-1zM17,5h1v1h-1zM19,5h1v1h-1zM20,5h1v1h-1zM21,5h1v1h-1zM22,5h1v1h-1zM23,5h1v1h-1zM24,5h1v1h-1zM25,5h1v1h-1zM26,5h1v1h-1zM27,5h1v1h-1zM28,5h1v1h-1zM29,5h1v1h-1zM31,5h1v1h-1zM33,5h1v1h-1zM34,5h1v1h-1zM35,5h1v1h-1zM36,5h1v1h-1zM37,5h1v1h-1zM39,5h1v1h-1zM41,5h1v1h-1zM42,5h1v1h-1zM43,5h1v1h-1zM45,5h1v1h-1zM1,6h1v1h-1zM7,6h1v1h-1zM9,6h1v1h-1zM10,6h1v1h-1zM11,6h1v1h-1zM12,6h1v1h-1zM13,6h1v1h-1zM15,6h1v1h-1zM17,6h1v1h-1zM18,6h1v1h-1zM20,6h1v1h-1zM21,6h1v1h-1zM25,6h1v1h-1zM27,6h1v1h-1zM39,6h1v1h-1zM45,6h1v1h-1zM1,7h1v1h-1zM2,7h1v1h-1zM3,7h1v1h-1zM4,7h1v1h-1zM5,7h1v1h-1zM6,7h1v1h-1zM7,7h1v1h-1zM9,7h1v1h-1zM11,7h1v1h-1zM13,7h1v1h-1zM15,7h1v1h-1zM17,7h1v1h-1zM19,7h1v1h-1zM21,7h1v1h-1zM23,7h1v1h-1zM25,7h1v1h-1zM27,7h1v1h-1zM29,7h1v1h-1zM31,7h1v1h-1zM33,7h1v1h-1zM35,7h1v1h-1zM37,7h1v1h-1zM39,7h1v1h-1zM40,7h1v1h-1zM41,7h1v1h-1zM42,7h1v1h-1zM43,7h1v1h-1zM44,7h1v1h-1zM45,7h1v1h-1zM9,8h1v1h-1zM12,8h1v1h-1zM13,8h1v1h-1zM14,8h1v1h-1zM17,8h1v1h-1zM21,8h1v1h-1zM25,8h1v1h-1zM31,8h1v1h-1zM32,8h1v1h-1zM33,8h1v1h-1zM34,8h1v1h-1zM37,8h1v1h-1zM1,9h1v1h-1zM3,9h1v1h-1zM4,9h1v1h-1zM5,9h1v1h-1zM6,9h1v1h-1zM7,9h1v1h-1zM15,9h1v1h-1zM16,9h1v1h-1zM17,9h1v1h-1zM18,9h1v1h-1zM20,9h1v1h-1zM21,9h1v1h-1zM22,9h1v1h-1zM23,9h1v1h-1zM24,9h1v1h-1zM25,9h1v1h-1zM27,9h1v1h-1zM29,9h1v1h-1zM34,9h1v1h-1zM35,9h1v1h-1zM37,9h1v1h-1zM39,9h1v1h-1zM40,9h1v1h-1zM41,9h1v1h-1zM42,9h1v1h-1zM43,9h1v1h-1zM2,10h1v1h-1zM3,10h1v1h-1zM5,10h1v1h-1zM8,10h1v1h-1zM9,10h1v1h-1zM10,10h1v1h-1zM11,10h1v1h-1zM13,10h1v1h-1zM15,10h1v1h-1zM16,10h1v1h-1zM17,10h1v1h-1zM19,10h1v1h-1zM20,10h1v1h-1zM25,10h1v1h-1zM26,10h1v1h-1zM27,10h1v1h-1zM28,10h1v1h-1zM29,10h1v1h-1zM30,10h1v1h-1zM32,10h1v1h-1zM33,10h1v1h-1zM35,10h1v1h-1zM36,10h1v1h-1zM37,10h1v1h-1zM41,10h1v1h-1zM42,10h1v1h-1zM43,10h1v1h-1zM45,10h1v1h-1zM1,11h1v1h-1zM4,11h1v1h-1zM6,11h1v1h-1zM7,11h1v1h-1zM9,11h1v1h-1zM10,11h1v1h-1zM11,11h1v1h-1zM14,11h1v1h-1zM16,11h1v1h-1zM17,11h1v1h-1zM18,11h1v1h-1zM19,11h1v1h-1zM20,11h1v1h-1zM23,11h1v1h-1zM25,11h1v1h-1zM26,11h1v1h-1zM27,11h1v1h-1zM35,11h1v1h-1zM1,12h1v1h-1zM2,12h1v1h-1zM3,12h1v1h-1zM4,12h1v1h-1zM5,12h1v1h-1zM9,12h1v1h-1zM12,12h1v1h-1zM25,12h1v1h-1zM26,12h1v1h-1zM30,12h1v1h-1zM31,12h1v1h-1zM32,12h1v1h-1zM33,12h1v1h-1zM36,12h1v1h-1zM37,12h1v1h-1zM38,12h1v1h-1zM44,12h1v1h-1zM45,12h1v1h-1zM1,13h1v1h-1zM2,13h1v1h-1zM3,13h1v1h-1zM4,13h1v1h-1zM6,13h1v1h-1zM7,13h1v1h-1zM10,13h1v1h-1zM12,13h1v1h-1zM18,13h1v1h-1zM19,13h1v1h-1zM20,13h1v1h-1zM25,13h1v1h-1zM27,13h1v1h-1zM28,13h1v1h-1zM32,13h1v1h-1zM33,13h1v1h-1zM36,13h1v1h-1zM38,13h1v1h-1zM39,13h1v1h-1zM40,13h1v1h-1zM42,13h1v1h-1zM43,13h1v1h-1zM44,13h1v1h-1zM1,14h1v1h-1zM2,14h1v1h-1zM4,14h1v1h-1zM6,14h1v1h-1zM12,14h1v1h-1zM14,14h1v1h-1zM17,14h1v1h-1zM19,14h1v1h-1zM23,14h1v1h-1zM24,14h1v1h-1zM25,14h1v1h-1zM26,14h1v1h-1zM28,14h1v1h-1zM29,14h1v1h-1zM31,14h1v1h-1zM33,14h1v1h-1zM35,14h1v1h-1zM37,14h1v1h-1zM38,14h1v1h-1zM40,14h1v1h-1zM41,14h1v1h-1zM42,14h1v1h-1zM43,14h1v1h-1zM44,14h1v1h-1zM45,14h1v1h-1zM2,15h1v1h-1zM3,15h1v1h-1zM6,15h1v1h-1zM7,15h1v1h-1zM14,15h1v1h-1zM16,15h1v1h-1zM17,15h1v1h-1zM18,15h1v1h-1zM19,15h1v1h-1zM20,15h1v1h-1zM21,15h1v1h-1zM22,15h1v1h-1zM23,15h1v1h-1zM24,15h1v1h-1zM26,15h1v1h-1zM30,15h1v1h-1zM31,15h1v1h-1zM32,15h1v1h-1zM35,15h1v1h-1zM38,15h1v1h-1zM44,15h1v1h-1zM45,15h1v1h-1zM3,16h1v1h-1zM5,16h1v1h-1zM6,16h1v1h-1zM8,16h1v1h-1zM9,16h1v1h-1zM11,16h1v1h-1zM12,16h1v1h-1zM13,16h1v1h-1zM14,16h1v1h-1zM15,16h1v1h-1zM23,16h1v1h-1zM26,16h1v1h-1zM28,16h1v1h-1zM30,16h1v1h-1zM31,16h1v1h-1zM34,16h1v1h-1zM36,16h1v1h-1zM37,16h1v1h-1zM38,16h1v1h-1zM40,16h1v1h-1zM41,16h1v1h-1zM42,16h1v1h-1zM43,16h1v1h-1zM45,16h1v1h-1zM3,17h1v1h-1zM5,17h1v1h-1zM7,17h1v1h-1zM9,17h1v1h-1zM10,17h1v1h-1zM11,17h1v1h-1zM12,17h1v1h-1zM15,17h1v1h-1zM16,17h1v1h-1zM18,17h1v1h-1zM19,17h1v1h-1zM21,17h1v1h-1zM22,17h1v1h-1zM24,17h1v1h-1zM25,17h1v1h-1zM27,17h1v1h-1zM29,17h1v1h-1zM33,17h1v1h-1zM34,17h1v1h-1zM35,17h1v1h-1zM36,17h1v1h-1zM39,17h1v1h-1zM41,17h1v1h-1zM43,17h1v1h-1zM44,17h1v1h-1zM1,18h1v1h-1zM4,18h1v1h-1zM6,18h1v1h-1zM16,18h1v1h-1zM17,18h1v1h-1zM18,18h1v1h-1zM19,18h1v1h-1zM20,18h1v1h-1zM27,18h1v1h-1zM28,18h1v1h-1zM29,18h1v1h-1zM31,18h1v1h-1zM33,18h1v1h-1zM35,18h1v1h-1zM36,18h1v1h-1zM38,18h1v1h-1zM39,18h1v1h-1zM40,18h1v1h-1zM41,18h1v1h-1zM42,18h1v1h-1zM43,18h1v1h-1zM44,18h1v1h-1zM45,18h1v1h-1zM3,19h1v1h-1zM7,19h1v1h-1zM9,19h1v1h-1zM10,19h1v1h-1zM11,19h1v1h-1zM15,19h1v1h-1zM16,19h1v1h-1zM18,19h1v1h-1zM19,19h1v1h-1zM20,19h1v1h-1zM23,19h1v1h-1zM25,19h1v1h-1zM32,19h1v1h-1zM35,19h1v1h-1zM42,19h1v1h-1zM44,19h1v1h-1zM45,19h1v1h-1zM3,20h1v1h-1zM4,20h1v1h-1zM6,20h1v1h-1zM8,20h1v1h-1zM14,20h1v1h-1zM16,20h1v1h-1zM22,20h1v1h-1zM24,20h1v1h-1zM26,20h1v1h-1zM30,20h1v1h-1zM31,20h1v1h-1zM32,20h1v1h-1zM33,20h1v1h-1zM37,20h1v1h-1zM38,20h1v1h-1zM43,20h1v1h-1zM45,20h1v1h-1zM1,21h1v1h-1zM5,21h1v1h-1zM6,21h1v1h-1zM7,21h1v1h-1zM8,21h1v1h-1zM9,21h1v1h-1zM10,21h1v1h-1zM12,21h1v1h-1zM14,21h1v1h-1zM15,21h1v1h-1zM21,21h1v1h-1zM22,21h1v1h-1zM23,21h1v1h-1zM24,21h1v1h-1zM25,21h1v1h-1zM27,21h1v1h-1zM28,21h1v1h-1zM30,21h1v1h-1zM35,21h1v1h-1zM36,21h1v1h-1zM37,21h1v1h-1zM38,21h1v1h-1zM39,21h1v1h-1zM40,21h1v1h-1zM41,21h1v1h-1zM2,22h1v1h-1zM3,22h1v1h-1zM4,22h1v1h-1zM5,22h1v1h-1zM9,22h1v1h-1zM12,22h1v1h-1zM14,22h1v1h-1zM19,22h1v1h-1zM20,22h1v1h-1zM21,22h1v1h-1zM25,22h1v1h-1zM28,22h1v1h-1zM29,22h1v1h-1zM32,22h1v1h-1zM33,22h1v1h-1zM36,22h1v1h-1zM37,22h1v1h-1zM41,22h1v1h-1zM42,22h1v1h-1zM43,22h1v1h-1zM44,22h1v1h-1zM45,22h1v1h-1zM3,23h1v1h-1zM4,23h1v1h-1zM5,23h1v1h-1zM7,23h1v1h-1zM9,23h1v1h-1zM11,23h1v1h-1zM15,23h1v1h-1zM16,23h1v1h-1zM17,23h1v1h-1zM19,23h1v1h-1zM20,23h1v1h-1zM21,23h1v1h-1zM23,23h1v1h-1zM25,23h1v1h-1zM26,23h1v1h-1zM30,23h1v1h-1zM31,23h1v1h-1zM34,23h1v1h-1zM35,23h1v1h-1zM37,23h1v1h-1zM39,23h1v1h-1zM41,23h1v1h-1zM44,23h1v1h-1zM45,23h1v1h-1zM2,24h1v1h-1zM4,24h1v1h-1zM5,24h1v1h-1zM9,24h1v1h-1zM10,24h1v1h-1zM11,24h1v1h-1zM12,24h1v1h-1zM13,24h1v1h-1zM17,24h1v1h-1zM18,24h1v1h-1zM19,24h1v1h-1zM21,24h1v1h-1zM25,24h1v1h-1zM26,24h1v1h-1zM29,24h1v1h-1zM31,24h1v1h-1zM33,24h1v1h-1zM37,24h1v1h-1zM41,24h1v1h-1zM45,24h1v1h-1zM2,25h1v1h-1zM3,25h1v1h-1zM4,25h1v1h-1zM5,25h1v1h-1zM6,25h1v1h-1zM7,25h1v1h-1zM8,25h1v1h-1zM9,25h1v1h-1zM12,25h1v1h-1zM13,25h1v1h-1zM14,25h1v1h-1zM17,25h1v1h-1zM19,25h1v1h-1zM20,25h1v1h-1zM21,25h1v1h-1zM22,25h1v1h-1zM23,25h1v1h-1zM24,25h1v1h-1zM25,25h1v1h-1zM27,25h1v1h-1zM29,25h1v1h-1zM30,25h1v1h-1zM32,25h1v1h-1zM33,25h1v1h-1zM34,25h1v1h-1zM35,25h1v1h-1zM36,25h1v1h-1zM37,25h1v1h-1zM38,25h1v1h-1zM39,25h1v1h-1zM40,25h1v1h-1zM41,25h1v1h-1zM43,25h1v1h-1zM44,25h1v1h-1zM2,26h1v1h-1zM8,26h1v1h-1zM9,26h1v1h-1zM10,26h1v1h-1zM12,26h1v1h-1zM14,26h1v1h-1zM16,26h1v1h-1zM17,26h1v1h-1zM18,26h1v1h-1zM19,26h1v1h-1zM22,26h1v1h-1zM23,26h1v1h-1zM24,26h1v1h-1zM25,26h1v1h-1zM26,26h1v1h-1zM28,26h1v1h-1zM29,26h1v1h-1zM31,26h1v1h-1zM33,26h1v1h-1zM36,26h1v1h-1zM39,26h1v1h-1zM41,26h1v1h-1zM42,26h1v1h-1zM43,26h1v1h-1zM1,27h1v1h-1zM2,27h1v1h-1zM6,27h1v1h-1zM7,27h1v1h-1zM9,27h1v1h-1zM10,27h1v1h-1zM12,27h1v1h-1zM18,27h1v1h-1zM19,27h1v1h-1zM25,27h1v1h-1zM27,27h1v1h-1zM31,27h1v1h-1zM35,27h1v1h-1zM38,27h1v1h-1zM39,27h1v1h-1zM40,27h1v1h-1zM41,27h1v1h-1zM44,27h1v1h-1zM1,28h1v1h-1zM4,28h1v1h-1zM5,28h1v1h-1zM9,28h1v1h-1zM11,28h1v1h-1zM12,28h1v1h-1zM13,28h1v1h-1zM14,28h1v1h-1zM15,28h1v1h-1zM16,28h1v1h-1zM17,28h1v1h-1zM18,28h1v1h-1zM19,28h1v1h-1zM20,28h1v1h-1zM21,28h1v1h-1zM22,28h1v1h-1zM23,28h1v1h-1zM25,28h1v1h-1zM26,28h1v1h-1zM28,28h1v1h-1zM30,28h1v1h-1zM31,28h1v1h-1zM32,28h1v1h-1zM37,28h1v1h-1zM38,28h1v1h-1zM42,28h1v1h-1zM43,28h1v1h-1zM45,28h1v1h-1zM3,29h1v1h-1zM4,29h1v1h-1zM7,29h1v1h-1zM8,29h1v1h-1zM12,29h1v1h-1zM13,29h1v1h-1zM18,29h1v1h-1zM23,29h1v1h-1zM24,29h1v1h-1zM26,29h1v1h-1zM27,29h1v1h-1zM28,29h1v1h-1zM29,29h1v1h-1zM32,29h1v1h-1zM35,29h1v1h-1zM37,29h1v1h-1zM38,29h1v1h-1zM40,29h1v1h-1zM43,29h1v1h-1zM45,29h1v1h-1zM5,30h1v1h-1zM9,30h1v1h-1zM10,30h1v1h-1zM12,30h1v1h-1zM14,30h1v1h-1zM15,30h1v1h-1zM16,30h1v1h-1zM17,30h1v1h-1zM18,30h1v1h-1zM21,30h1v1h-1zM22,30h1v1h-1zM24,30h1v1h-1zM25,30h1v1h-1zM28,30h1v1h-1zM29,30h1v1h-1zM30,30h1v1h-1zM33,30h1v1h-1zM36,30h1v1h-1zM38,30h1v1h-1zM39,30h1v1h-1zM42,30h1v1h-1zM43,30h1v1h-1zM44,30h1v1h-1zM5,31h1v1h-1zM7,31h1v1h-1zM9,31h1v1h-1zM12,31h1v1h-1zM13,31h1v1h-1zM15,31h1v1h-1zM16,31h1v1h-1zM18,31h1v1h-1zM19,31h1v1h-1zM20,31h1v1h-1zM24,31h1v1h-1zM26,31h1v1h-1zM27,31h1v1h-1zM31,31h1v1h-1zM32,31h1v1h-1zM34,31h1v1h-1zM41,31h1v1h-1zM44,31h1v1h-1zM1,32h1v1h-1zM2,32h1v1h-1zM3,32h1v1h-1zM6,32h1v1h-1zM9,32h1v1h-1zM13,32h1v1h-1zM14,32h1v1h-1zM16,32h1v1h-1zM18,32h1v1h-1zM20,32h1v1h-1zM21,32h1v1h-1zM23,32h1v1h-1zM26,32h1v1h-1zM31,32h1v1h-1zM37,32h1v1h-1zM38,32h1v1h-1zM39,32h1v1h-1zM42,32h1v1h-1zM45,32h1v1h-1zM1,33h1v1h-1zM4,33h1v1h-1zM7,33h1v1h-1zM8,33h1v1h-1zM10,33h1v1h-1zM12,33h1v1h-1zM13,33h1v1h-1zM15,33h1v1h-1zM19,33h1v1h-1zM20,33h1v1h-1zM21,33h1v1h-1zM22,33h1v1h-1zM27,33h1v1h-1zM28,33h1v1h-1zM32,33h1v1h-1zM35,33h1v1h-1zM36,33h1v1h-1zM37,33h1v1h-1zM38,33h1v1h-1zM41,33h1v1h-1zM42,33h1v1h-1zM44,33h1v1h-1zM3,34h1v1h-1zM5,34h1v1h-1zM6,34h1v1h-1zM8,34h1v1h-1zM9,34h1v1h-1zM11,34h1v1h-1zM17,34h1v1h-1zM18,34h1v1h-1zM19,34h1v1h-1zM23,34h1v1h-1zM24,34h1v1h-1zM25,34h1v1h-1zM28,34h1v1h-1zM29,34h1v1h-1zM30,34h1v1h-1zM32,34h1v1h-1zM33,34h1v1h-1zM36,34h1v1h-1zM38,34h1v1h-1zM39,34h1v1h-1zM42,34h1v1h-1zM43,34h1v1h-1zM44,34h1v1h-1zM45,34h1v1h-1zM5,35h1v1h-1zM7,35h1v1h-1zM8,35h1v1h-1zM9,35h1v1h-1zM10,35h1v1h-1zM11,35h1v1h-1zM12,35h1v1h-1zM15,35h1v1h-1zM18,35h1v1h-1zM20,35h1v1h-1zM22,35h1v1h-1zM24,35h1v1h-1zM26,35h1v1h-1zM32,35h1v1h-1zM34,35h1v1h-1zM35,35h1v1h-1zM37,35h1v1h-1zM40,35h1v1h-1zM42,35h1v1h-1zM2,36h1v1h-1zM3,36h1v1h-1zM4,36h1v1h-1zM5,36h1v1h-1zM8,36h1v1h-1zM12,36h1v1h-1zM13,36h1v1h-1zM16,36h1v1h-1zM17,36h1v1h-1zM18,36h1v1h-1zM19,36h1v1h-1zM20,36h1v1h-1zM21,36h1v1h-1zM24,36h1v1h-1zM26,36h1v1h-1zM29,36h1v1h-1zM30,36h1v1h-1zM31,36h1v1h-1zM33,36h1v1h-1zM34,36h1v1h-1zM36,36h1v1h-1zM37,36h1v1h-1zM38,36h1v1h-1zM39,36h1v1h-1zM44,36h1v1h-1zM45,36h1v1h-1zM1,37h1v1h-1zM4,37h1v1h-1zM5,37h1v1h-1zM7,37h1v1h-1zM8,37h1v1h-1zM11,37h1v1h-1zM12,37h1v1h-1zM13,37h1v1h-1zM14,37h1v1h-1zM18,37h1v1h-1zM21,37h1v1h-1zM22,37h1v1h-1zM23,37h1v1h-1zM24,37h1v1h-1zM25,37h1v1h-1zM26,37h1v1h-1zM27,37h1v1h-1zM30,37h1v1h-1zM31,37h1v1h-1zM32,37h1v1h-1zM33,37h1v1h-1zM35,37h1v1h-1zM36,37h1v1h-1zM37,37h1v1h-1zM38,37h1v1h-1zM39,37h1v1h-1zM40,37h1v1h-1zM41,37h1v1h-1zM42,37h1v1h-1zM43,37h1v1h-1zM44,37h1v1h-1zM9,38h1v1h-1zM12,38h1v1h-1zM13,38h1v1h-1zM18,38h1v1h-1zM19,38h1v1h-1zM20,38h1v1h-1zM21,38h1v1h-1zM25,38h1v1h-1zM28,38h1v1h-1zM29,38h1v1h-1zM30,38h1v1h-1zM33,38h1v1h-1zM34,38h1v1h-1zM36,38h1v1h-1zM37,38h1v1h-1zM41,38h1v1h-1zM42,38h1v1h-1zM43,38h1v1h-1zM45,38h1v1h-1zM1,39h1v1h-1zM2,39h1v1h-1zM3,39h1v1h-1zM4,39h1v1h-1zM5,39h1v1h-1zM6,39h1v1h-1zM7,39h1v1h-1zM10,39h1v1h-1zM12,39h1v1h-1zM13,39h1v1h-1zM16,39h1v1h-1zM17,39h1v1h-1zM19,39h1v1h-1zM21,39h1v1h-1zM23,39h1v1h-1zM25,39h1v1h-1zM30,39h1v1h-1zM34,39h1v1h-1zM36,39h1v1h-1zM37,39h1v1h-1zM39,39h1v1h-1zM41,39h1v1h-1zM42,39h1v1h-1zM1,40h1v1h-1zM7,40h1v1h-1zM9,40h1v1h-1zM10,40h1v1h-1zM11,40h1v1h-1zM12,40h1v1h-1zM15,40h1v1h-1zM17,40h1v1h-1zM18,40h1v1h-1zM20,40h1v1h-1zM21,40h1v1h-1zM25,40h1v1h-1zM26,40h1v1h-1zM29,40h1v1h-1zM31,40h1v1h-1zM37,40h1v1h-1zM41,40h1v1h-1zM42,40h1v1h-1zM43,40h1v1h-1zM44,40h1v1h-1zM45,40h1v1h-1zM1,41h1v1h-1zM3,41h1v1h-1zM4,41h1v1h-1zM5,41h1v1h-1zM7,41h1v1h-1zM9,41h1v1h-1zM10,41h1v1h-1zM11,41h1v1h-1zM13,41h1v1h-1zM16,41h1v1h-1zM21,41h1v1h-1zM22,41h1v1h-1zM23,41h1v1h-1zM24,41h1v1h-1zM25,41h1v1h-1zM26,41h1v1h-1zM27,41h1v1h-1zM28,41h1v1h-1zM34,41h1v1h-1zM35,41h1v1h-1zM37,41h1v1h-1zM38,41h1v1h-1zM39,41h1v1h-1zM40,41h1v1h-1zM41,41h1v1h-1zM43,41h1v1h-1zM44,41h1v1h-1zM1,42h1v1h-1zM3,42h1v1h-1zM4,42h1v1h-1zM5,42h1v1h-1zM7,42h1v1h-1zM9,42h1v1h-1zM10,42h1v1h-1zM11,42h1v1h-1zM12,42h1v1h-1zM14,42h1v1h-1zM18,42h1v1h-1zM21,42h1v1h-1zM22,42h1v1h-1zM27,42h1v1h-1zM28,42h1v1h-1zM29,42h1v1h-1zM30,42h1v1h-1zM32,42h1v1h-1zM33,42h1v1h-1zM34,42h1v1h-1zM35,42h1v1h-1zM36,42h1v1h-1zM37,42h1v1h-1zM38,42h1v1h-1zM41,42h1v1h-1zM42,42h1v1h-1zM43,42h1v1h-1zM44,42h1v1h-1zM1,43h1v1h-1zM3,43h1v1h-1zM4,43h1v1h-1zM5,43h1v1h-1zM7,43h1v1h-1zM9,43h1v1h-1zM15,43h1v1h-1zM20,43h1v1h-1zM25,43h1v1h-1zM30,43h1v1h-1zM31,43h1v1h-1zM36,43h1v1h-1zM37,43h1v1h-1zM39,43h1v1h-1zM42,43h1v1h-1zM43,43h1v1h-1zM1,44h1v1h-1zM7,44h1v1h-1zM10,44h1v1h-1zM11,44h1v1h-1zM12,44h1v1h-1zM13,44h1v1h-1zM16,44h1v1h-1zM20,44h1v1h-1zM21,44h1v1h-1zM22,44h1v1h-1zM24,44h1v1h-1zM28,44h1v1h-1zM30,44h1v1h-1zM31,44h1v1h-1zM38,44h1v1h-1zM39,44h1v1h-1zM41,44h1v1h-1zM42,44h1v1h-1zM44,44h1v1h-1zM45,44h1v1h-1zM1,45h1v1h-1zM2,45h1v1h-1zM3,45h1v1h-1zM4,45h1v1h-1zM5,45h1v1h-1zM6,45h1v1h-1zM7,45h1v1h-1zM9,45h1v1h-1zM11,45h1v1h-1zM14,45h1v1h-1zM15,45h1v1h-1zM16,45h1v1h-1zM19,45h1v1h-1zM20,45h1v1h-1zM21,45h1v1h-1zM22,45h1v1h-1zM23,45h1v1h-1zM24,45h1v1h-1zM27,45h1v1h-1zM28,45h1v1h-1zM30,45h1v1h-1zM33,45h1v1h-1zM34,45h1v1h-1zM35,45h1v1h-1zM36,45h1v1h-1zM37,45h1v1h-1zM38,45h1v1h-1zM39,45h1v1h-1zM42,45h1v1h-1zM44,45h1v1h-1z"/>
</svg>